<?xml version="1.0" standalone="no"?>
<!DOCTYPE svg PUBLIC "-//W3C//DTD SVG 20010904//EN"
 "http://www.w3.org/TR/2001/REC-SVG-20010904/DTD/svg10.dtd">
<svg version="1.0" xmlns="http://www.w3.org/2000/svg"
 width="429.000000pt" height="357.000000pt" viewBox="0 0 429.000000 357.000000"
 preserveAspectRatio="xMidYMid meet">

<g transform="translate(0.000000,357.000000) scale(0.100000,-0.100000)"
fill="#000000" stroke="none">
<path d="M1520 3540 c-180 -17 -483 -110 -655 -200 -191 -101 -363 -232 -484
-371 -92 -106 -97 -112 -146 -189 -89 -139 -136 -247 -188 -435 -29 -105 -31
-119 -31 -305 -1 -173 2 -206 23 -290 71 -289 210 -531 420 -733 l91 -88 -6
-42 c-4 -23 -17 -88 -30 -144 -14 -62 -24 -134 -24 -181 0 -72 2 -81 35 -130
52 -76 118 -112 210 -112 68 0 71 1 189 72 67 40 130 78 141 84 11 6 55 32 98
59 l77 48 98 -21 c53 -12 135 -26 182 -32 109 -13 382 -13 490 0 83 10 278 52
326 70 l24 9 -38 59 c-21 33 -46 80 -56 106 -10 25 -22 46 -28 46 -5 0 -44 -9
-86 -19 -114 -29 -229 -41 -397 -41 -181 1 -245 8 -419 50 l-134 33 -40 -24
c-22 -13 -85 -51 -139 -84 -54 -33 -102 -62 -107 -64 -6 -2 -47 -28 -93 -57
-45 -30 -85 -54 -88 -54 -10 0 -5 43 20 158 14 64 35 162 47 216 20 97 21 99
2 113 -277 200 -445 437 -525 738 -21 78 -24 112 -24 250 1 141 4 171 27 255
67 242 169 412 357 593 95 91 257 205 371 259 99 47 269 104 399 135 108 25
132 27 346 27 232 1 252 -2 430 -44 423 -102 796 -384 973 -736 46 -91 100
-280 108 -378 l7 -86 32 0 c19 0 69 -7 112 -15 43 -8 82 -15 87 -15 16 0 -3
215 -29 315 -63 247 -167 443 -337 628 -137 150 -294 269 -493 374 -159 84
-465 175 -652 193 -111 11 -361 11 -473 0z"/>
<path d="M3997 1148 c-92 -20 -149 -76 -167 -165 -28 -146 -67 -232 -174 -392
-64 -95 -79 -131 -53 -131 17 0 73 35 126 78 104 85 214 138 323 157 75 14
135 42 170 81 50 57 64 171 30 246 -44 100 -145 150 -255 126z"/>
<path d="M2921 697 c2 -2 18 -11 34 -21 l30 -17 -24 20 c-13 12 -28 21 -34 21
-6 0 -8 -1 -6 -3z"/>
<path d="M2900 671 c0 -6 4 -13 10 -16 6 -3 7 1 4 9 -7 18 -14 21 -14 7z"/>
<path d="M3025 630 c10 -11 20 -20 23 -20 3 0 -3 9 -13 20 -10 11 -20 20 -23
20 -3 0 3 -9 13 -20z"/>
<path d="M2920 636 c0 -2 8 -10 18 -17 15 -13 16 -12 3 4 -13 16 -21 21 -21
13z"/>
<path d="M2966 580 c12 -14 33 -43 48 -65 16 -25 26 -33 26 -22 0 9 -5 17 -11
17 -6 0 -9 6 -6 13 6 17 -8 42 -25 42 -7 1 -11 7 -10 15 2 8 0 12 -4 8 -4 -4
-14 -2 -23 4 -9 7 -7 1 5 -12z m48 -36 c3 -8 2 -12 -4 -9 -6 3 -10 10 -10 16
0 14 7 11 14 -7z"/>
<path d="M3082 588 c10 -8 15 -17 13 -20 -3 -3 1 -11 9 -17 12 -10 14 -9 12 5
-2 10 -14 24 -27 32 -21 12 -22 12 -7 0z"/>
<path d="M3131 557 c16 -12 79 -45 79 -42 0 7 -63 45 -74 45 -5 0 -7 -1 -5 -3z"/>
<path d="M3224 512 c3 -6 0 -12 -6 -15 -7 -2 -1 -4 15 -4 33 -1 34 3 6 18 -13
6 -19 7 -15 1z"/>
<path d="M3283 487 c0 -7 14 -13 31 -14 17 0 24 1 16 4 -8 3 -22 9 -31 14 -10
5 -16 4 -16 -4z"/>
<path d="M3363 463 c9 -2 23 -2 30 0 6 3 -1 5 -18 5 -16 0 -22 -2 -12 -5z"/>
<path d="M3430 448 c14 -6 31 -12 38 -14 22 -4 52 -36 45 -47 -4 -6 -1 -7 7
-2 10 6 5 15 -19 37 -18 16 -36 26 -41 23 -5 -3 -11 -1 -15 5 -3 5 -14 10 -23
9 -12 0 -9 -4 8 -11z"/>
<path d="M3067 444 c-6 -7 29 -84 38 -84 3 0 -3 17 -14 39 -11 21 -17 41 -14
45 4 3 4 6 1 6 -2 0 -7 -3 -11 -6z"/>
<path d="M3546 367 c3 -10 9 -15 12 -12 3 3 0 11 -7 18 -10 9 -11 8 -5 -6z"/>
<path d="M3561 330 c0 -8 4 -22 9 -30 12 -18 12 -2 0 25 -6 13 -9 15 -9 5z"/>
<path d="M3121 305 c1 -19 18 -51 18 -35 0 8 -4 22 -9 30 -5 8 -9 11 -9 5z"/>
<path d="M3583 240 c0 -25 2 -35 4 -22 2 12 2 32 0 45 -2 12 -4 2 -4 -23z"/>
<path d="M3142 220 c0 -19 2 -27 5 -17 2 9 2 25 0 35 -3 9 -5 1 -5 -18z"/>
<path d="M3162 210 c0 -14 2 -19 5 -12 2 6 2 18 0 25 -3 6 -5 1 -5 -13z"/>
<path d="M3151 171 c-2 -24 49 -102 61 -95 7 4 2 13 -12 24 -15 11 -20 22 -15
30 5 8 4 11 -3 6 -6 -3 -15 6 -20 21 -6 16 -11 22 -11 14z"/>
<path d="M3560 149 c-7 -11 -10 -23 -7 -25 2 -2 9 7 15 21 14 30 7 33 -8 4z"/>
<path d="M3529 115 c-1 -3 -2 -8 -3 -12 -1 -5 -5 -15 -10 -23 -6 -9 -1 -8 12
4 12 10 19 23 16 27 -6 10 -13 12 -15 4z"/>
<path d="M3461 59 c-1 -9 -11 -21 -23 -27 -13 -6 -18 -11 -12 -11 19 -2 47 26
41 40 -4 11 -6 11 -6 -2z"/>
<path d="M3343 13 c15 -2 37 -2 50 0 12 2 0 4 -28 4 -27 0 -38 -2 -22 -4z"/>
</g>
</svg>
